<svg xmlns="http://www.w3.org/2000/svg" xmlns:xlink="http://www.w3.org/1999/xlink" width="500" zoomAndPan="magnify" viewBox="0 0 375 374.999991" height="500" preserveAspectRatio="xMidYMid meet" version="1.0"><defs><clipPath id="939955f1d5"><path d="M 342 171 L 367.414062 171 L 367.414062 199 L 342 199 Z M 342 171 " clip-rule="nonzero"/></clipPath><clipPath id="d865f62d2b"><path d="M 302 46.582031 L 326 46.582031 L 326 74 L 302 74 Z M 302 46.582031 " clip-rule="nonzero"/></clipPath><clipPath id="8a46ee8c34"><path d="M 7.414062 171 L 33 171 L 33 199 L 7.414062 199 Z M 7.414062 171 " clip-rule="nonzero"/></clipPath><clipPath id="d421782f75"><path d="M 49 46.582031 L 73 46.582031 L 73 74 L 49 74 Z M 49 46.582031 " clip-rule="nonzero"/></clipPath><clipPath id="9aa1e5bcec"><path d="M 70.628906 111.242188 L 304.628906 111.242188 L 304.628906 263.492188 L 70.628906 263.492188 Z M 70.628906 111.242188 " clip-rule="nonzero"/></clipPath><clipPath id="e477fdad20"><path d="M 171.417969 50 L 203.667969 50 L 203.667969 106.820312 L 171.417969 106.820312 Z M 171.417969 50 " clip-rule="nonzero"/></clipPath></defs><path fill="#f9971d" d="M 187.5 298.089844 C 189.59375 302.113281 191.851562 306.089844 194.28125 310.023438 C 200.609375 320.859375 222.386719 328.402344 244.101562 323.339844 C 240.601562 320.265625 237.246094 317.09375 234.035156 313.828125 C 224.992188 304.984375 207.789062 300.527344 187.492188 298.089844 Z M 187.5 298.089844 " fill-opacity="1" fill-rule="nonzero"/><path fill="#f9971d" d="M 215.433594 298.820312 C 217.496094 294.902344 219.355469 290.953125 221.011719 286.976562 C 225.847656 276.128906 237.570312 267.292969 250.417969 261.648438 C 250.296875 265.804688 249.996094 269.988281 249.511719 274.195312 C 248.527344 285.605469 235.007812 297.578125 215.441406 298.808594 Z M 215.433594 298.820312 " fill-opacity="1" fill-rule="nonzero"/><path fill="#f9971d" d="M 224.253906 297.960938 C 226.917969 301.203125 229.714844 304.378906 232.652344 307.480469 C 240.40625 316.09375 260.40625 318.539062 278.410156 309.8125 C 274.691406 307.636719 271.078125 305.355469 267.578125 302.964844 C 257.808594 296.558594 241.769531 295.832031 224.253906 297.960938 Z M 224.253906 297.960938 " fill-opacity="1" fill-rule="nonzero"/><path fill="#f9971d" d="M 248.160156 292.800781 C 249.082031 288.785156 249.835938 284.78125 250.417969 280.78125 C 252.285156 269.824219 260.859375 259.324219 271.558594 251.691406 C 272.242188 255.5625 272.777344 259.488281 273.167969 263.46875 C 274.492188 274.210938 264.769531 287.722656 248.15625 292.800781 Z M 248.160156 292.800781 " fill-opacity="1" fill-rule="nonzero"/><path fill="#f9971d" d="M 257.378906 289.589844 C 260.417969 292.003906 263.554688 294.332031 266.796875 296.582031 C 275.453125 302.871094 293.351562 301.148438 307.707031 289.875 C 303.929688 288.566406 300.234375 287.144531 296.609375 285.613281 C 286.5625 281.570312 272.027344 283.992188 257.371094 289.589844 Z M 257.378906 289.589844 " fill-opacity="1" fill-rule="nonzero"/><path fill="#f9971d" d="M 277.1875 280.023438 C 277.152344 276.164062 276.980469 272.339844 276.671875 268.554688 C 276.039062 258.136719 281.710938 246.777344 290.234375 237.730469 C 291.558594 241.179688 292.773438 244.703125 293.878906 248.296875 C 297.089844 257.960938 290.839844 272.109375 277.195312 280.023438 Z M 277.1875 280.023438 " fill-opacity="1" fill-rule="nonzero"/><path fill="#f9971d" d="M 286.3125 274.207031 C 289.539062 275.789062 292.835938 277.277344 296.203125 278.679688 C 305.261719 282.667969 320.796875 277.660156 331.640625 264.832031 C 327.960938 264.320312 324.328125 263.699219 320.738281 262.976562 C 310.839844 261.144531 298.101562 266.117188 286.3125 274.207031 Z M 286.3125 274.207031 " fill-opacity="1" fill-rule="nonzero"/><path fill="#f9971d" d="M 302.035156 261.558594 C 301.210938 258.042969 300.285156 254.585938 299.253906 251.183594 C 296.59375 241.785156 299.628906 230.242188 305.945312 220.3125 C 307.773438 223.253906 309.515625 226.273438 311.175781 229.371094 C 315.851562 237.671875 312.722656 251.707031 302.035156 261.558594 Z M 302.035156 261.558594 " fill-opacity="1" fill-rule="nonzero"/><path fill="#f9971d" d="M 310.511719 253.019531 C 313.75 253.808594 317.03125 254.503906 320.359375 255.109375 C 329.355469 256.929688 342.328125 249.460938 349.828125 235.925781 C 346.363281 236.128906 342.929688 236.234375 339.527344 236.238281 C 330.15625 236.394531 319.453125 243.324219 310.511719 253.019531 Z M 310.511719 253.019531 " fill-opacity="1" fill-rule="nonzero"/><path fill="#f9971d" d="M 322.207031 238.476562 C 320.773438 235.445312 319.265625 232.476562 317.6875 229.578125 C 313.460938 221.542969 314.144531 210.367188 318.289062 200.039062 C 320.46875 202.414062 322.59375 204.871094 324.660156 207.40625 C 330.398438 214.1875 330.023438 227.496094 322.21875 238.476562 Z M 322.207031 238.476562 " fill-opacity="1" fill-rule="nonzero"/><path fill="#f9971d" d="M 329.394531 227.257812 C 332.492188 227.320312 335.605469 227.300781 338.742188 227.195312 C 347.257812 227.058594 357.542969 217.914062 361.910156 204.386719 C 358.796875 205.195312 355.6875 205.917969 352.578125 206.550781 C 344.074219 208.421875 335.574219 216.722656 329.394531 227.257812 Z M 329.394531 227.257812 " fill-opacity="1" fill-rule="nonzero"/><path fill="#f9971d" d="M 337.214844 211.828125 C 335.339844 209.359375 333.410156 206.964844 331.425781 204.636719 C 326.082031 198.160156 324.707031 187.785156 326.746094 177.5 C 329.148438 179.292969 331.511719 181.160156 333.839844 183.105469 C 340.257812 188.265625 342.253906 200.414062 337.214844 211.828125 Z M 337.214844 211.828125 " fill-opacity="1" fill-rule="nonzero"/><g clip-path="url(#939955f1d5)"><path fill="#f9971d" d="M 342.429688 198.136719 C 345.238281 197.574219 348.050781 196.9375 350.871094 196.226562 C 358.554688 194.417969 366.082031 184.304688 367.570312 171.367188 C 364.898438 172.664062 362.210938 173.890625 359.511719 175.039062 C 352.148438 178.300781 345.972656 187.429688 342.429688 198.125 Z M 342.429688 198.136719 " fill-opacity="1" fill-rule="nonzero"/></g><path fill="#f9971d" d="M 346.570312 182.714844 C 344.410156 180.847656 342.21875 179.050781 339.992188 177.324219 C 333.949219 172.488281 330.828125 163.25 330.859375 153.386719 C 333.351562 154.601562 335.828125 155.886719 338.285156 157.246094 C 345.027344 160.816406 349 171.460938 346.570312 182.714844 Z M 346.570312 182.714844 " fill-opacity="1" fill-rule="nonzero"/><path fill="#f9971d" d="M 349.046875 166.875 C 351.457031 165.808594 353.859375 164.679688 356.246094 163.484375 C 362.777344 160.34375 367.582031 149.894531 366.496094 138.027344 C 364.339844 139.683594 362.15625 141.285156 359.941406 142.828125 C 353.945312 147.136719 350.128906 156.570312 349.039062 166.875 Z M 349.046875 166.875 " fill-opacity="1" fill-rule="nonzero"/><path fill="#f9971d" d="M 349.785156 152.191406 C 347.488281 150.933594 345.175781 149.726562 342.851562 148.578125 C 336.503906 145.359375 331.945312 137.503906 330.113281 128.375 C 332.589844 129.054688 335.058594 129.789062 337.523438 130.589844 C 344.261719 132.660156 349.816406 141.585938 349.785156 152.183594 Z M 349.785156 152.191406 " fill-opacity="1" fill-rule="nonzero"/><path fill="#f9971d" d="M 348.707031 134.695312 C 350.625 133.253906 352.527344 131.761719 354.40625 130.222656 C 359.566406 126.113281 361.730469 115.886719 358.40625 105.429688 C 356.816406 107.324219 355.195312 109.171875 353.539062 110.972656 C 349.058594 115.972656 347.566406 125.230469 348.707031 134.703125 Z M 348.707031 134.695312 " fill-opacity="1" fill-rule="nonzero"/><path fill="#f9971d" d="M 346.367188 121.34375 C 344.074219 120.644531 341.773438 119.996094 339.472656 119.402344 C 333.171875 117.695312 327.507812 111.335938 323.992188 103.226562 C 326.34375 103.421875 328.703125 103.667969 331.070312 103.964844 C 337.515625 104.679688 344.253906 111.785156 346.367188 121.34375 Z M 346.367188 121.34375 " fill-opacity="1" fill-rule="nonzero"/><path fill="#f9971d" d="M 340.816406 102.816406 C 342.191406 101.136719 343.535156 99.425781 344.851562 97.679688 C 348.484375 92.972656 348.183594 83.441406 343.003906 74.625 C 342.003906 76.625 340.964844 78.589844 339.890625 80.519531 C 337.011719 85.851562 337.730469 94.53125 340.816406 102.804688 Z M 340.816406 102.816406 " fill-opacity="1" fill-rule="nonzero"/><path fill="#f9971d" d="M 335.824219 91.234375 C 333.644531 91.035156 331.472656 90.878906 329.304688 90.765625 C 323.363281 90.390625 316.914062 85.585938 311.945312 78.679688 C 314.09375 78.464844 316.25 78.292969 318.421875 78.160156 C 324.328125 77.722656 331.867188 83 335.824219 91.234375 Z M 335.824219 91.234375 " fill-opacity="1" fill-rule="nonzero"/><g clip-path="url(#d865f62d2b)"><path fill="#f9971d" d="M 325.898438 73.785156 C 323.441406 71.675781 320.917969 69.644531 318.328125 67.683594 C 311.320312 62.332031 305.144531 54.335938 302.28125 46.601562 C 305.359375 48.273438 308.375 50.027344 311.320312 51.867188 C 319.476562 56.875 325.457031 66.175781 325.875 73.789062 Z M 325.898438 73.785156 " fill-opacity="1" fill-rule="nonzero"/></g><path fill="#f9971d" d="M 187.503906 298.089844 C 185.414062 302.113281 183.15625 306.089844 180.722656 310.023438 C 174.394531 320.859375 152.621094 328.402344 130.90625 323.339844 C 134.402344 320.265625 137.757812 317.09375 140.972656 313.828125 C 150.011719 304.984375 167.21875 300.527344 187.511719 298.089844 Z M 187.503906 298.089844 " fill-opacity="1" fill-rule="nonzero"/><path fill="#f9971d" d="M 159.570312 298.820312 C 157.511719 294.914062 155.65625 290.96875 154.003906 286.984375 C 149.167969 276.136719 137.445312 267.304688 124.597656 261.65625 C 124.714844 265.8125 125.019531 269.996094 125.5 274.207031 C 126.488281 285.617188 140.007812 297.585938 159.574219 298.820312 Z M 159.570312 298.820312 " fill-opacity="1" fill-rule="nonzero"/><path fill="#f9971d" d="M 150.75 297.960938 C 148.089844 301.203125 145.289062 304.378906 142.355469 307.480469 C 134.597656 316.09375 114.601562 318.539062 96.597656 309.8125 C 100.316406 307.636719 103.925781 305.355469 107.429688 302.964844 C 117.199219 296.558594 133.238281 295.832031 150.75 297.960938 Z M 150.75 297.960938 " fill-opacity="1" fill-rule="nonzero"/><path fill="#f9971d" d="M 126.847656 292.800781 C 125.925781 288.785156 125.171875 284.78125 124.585938 280.78125 C 122.722656 269.824219 114.148438 259.324219 103.445312 251.691406 C 102.765625 255.5625 102.230469 259.488281 101.839844 263.46875 C 100.511719 274.210938 110.234375 287.722656 126.851562 292.800781 Z M 126.847656 292.800781 " fill-opacity="1" fill-rule="nonzero"/><path fill="#f9971d" d="M 117.628906 289.589844 C 114.589844 292.003906 111.449219 294.332031 108.207031 296.582031 C 99.554688 302.871094 81.65625 301.148438 67.300781 289.875 C 71.074219 288.566406 74.773438 287.144531 78.398438 285.613281 C 88.441406 281.570312 102.976562 283.992188 117.636719 289.589844 Z M 117.628906 289.589844 " fill-opacity="1" fill-rule="nonzero"/><path fill="#f9971d" d="M 97.816406 280.023438 C 97.855469 276.164062 98.027344 272.339844 98.332031 268.554688 C 98.96875 258.136719 93.292969 246.777344 84.773438 237.730469 C 83.445312 241.179688 82.230469 244.703125 81.128906 248.296875 C 77.914062 257.960938 84.167969 272.109375 97.808594 280.023438 Z M 97.816406 280.023438 " fill-opacity="1" fill-rule="nonzero"/><path fill="#f9971d" d="M 88.691406 274.207031 C 85.46875 275.789062 82.171875 277.277344 78.800781 278.679688 C 69.746094 282.667969 54.21875 277.660156 43.371094 264.832031 C 47.050781 264.320312 50.6875 263.699219 54.277344 262.976562 C 64.175781 261.144531 76.914062 266.117188 88.699219 274.207031 Z M 88.691406 274.207031 " fill-opacity="1" fill-rule="nonzero"/><path fill="#f9971d" d="M 72.976562 261.558594 C 73.800781 258.042969 74.726562 254.585938 75.757812 251.183594 C 78.417969 241.785156 75.378906 230.242188 69.066406 220.3125 C 67.238281 223.253906 65.496094 226.273438 63.839844 229.371094 C 59.160156 237.671875 62.289062 251.707031 72.976562 261.558594 Z M 72.976562 261.558594 " fill-opacity="1" fill-rule="nonzero"/><path fill="#f9971d" d="M 64.5 253.019531 C 61.261719 253.808594 57.976562 254.503906 54.652344 255.109375 C 45.65625 256.929688 32.679688 249.460938 25.183594 235.925781 C 28.648438 236.128906 32.082031 236.234375 35.480469 236.238281 C 44.851562 236.394531 55.558594 243.324219 64.5 253.019531 Z M 64.5 253.019531 " fill-opacity="1" fill-rule="nonzero"/><path fill="#f9971d" d="M 52.800781 238.476562 C 54.234375 235.445312 55.742188 232.476562 57.332031 229.578125 C 61.558594 221.542969 60.871094 210.367188 56.730469 200.039062 C 54.546875 202.414062 52.421875 204.871094 50.359375 207.40625 C 44.617188 214.1875 44.996094 227.496094 52.800781 238.476562 Z M 52.800781 238.476562 " fill-opacity="1" fill-rule="nonzero"/><path fill="#f9971d" d="M 45.609375 227.257812 C 42.515625 227.320312 39.402344 227.300781 36.261719 227.195312 C 27.746094 227.058594 17.460938 217.910156 13.097656 204.386719 C 16.207031 205.195312 19.320312 205.917969 22.425781 206.550781 C 30.933594 208.421875 39.429688 216.722656 45.609375 227.257812 Z M 45.609375 227.257812 " fill-opacity="1" fill-rule="nonzero"/><path fill="#f9971d" d="M 37.789062 211.828125 C 39.667969 209.359375 41.597656 206.964844 43.582031 204.636719 C 48.925781 198.160156 50.300781 187.785156 48.261719 177.5 C 45.859375 179.292969 43.496094 181.160156 41.167969 183.105469 C 34.75 188.265625 32.753906 200.414062 37.789062 211.828125 Z M 37.789062 211.828125 " fill-opacity="1" fill-rule="nonzero"/><g clip-path="url(#8a46ee8c34)"><path fill="#f9971d" d="M 32.578125 198.136719 C 29.765625 197.574219 26.953125 196.9375 24.136719 196.226562 C 16.449219 194.417969 8.921875 184.304688 7.4375 171.367188 C 10.109375 172.664062 12.796875 173.890625 15.492188 175.039062 C 22.855469 178.300781 29.03125 187.429688 32.578125 198.125 Z M 32.578125 198.136719 " fill-opacity="1" fill-rule="nonzero"/></g><path fill="#f9971d" d="M 28.433594 182.714844 C 30.59375 180.847656 32.785156 179.050781 35.007812 177.324219 C 41.050781 172.488281 44.171875 163.25 44.144531 153.386719 C 41.648438 154.601562 39.171875 155.886719 36.714844 157.246094 C 29.972656 160.816406 26 171.460938 28.429688 182.714844 Z M 28.433594 182.714844 " fill-opacity="1" fill-rule="nonzero"/><path fill="#f9971d" d="M 25.96875 166.875 C 23.558594 165.808594 21.15625 164.679688 18.769531 163.484375 C 12.226562 160.34375 7.421875 149.894531 8.507812 138.027344 C 10.664062 139.683594 12.851562 141.285156 15.0625 142.828125 C 21.050781 147.136719 24.871094 156.570312 25.96875 166.875 Z M 25.96875 166.875 " fill-opacity="1" fill-rule="nonzero"/><path fill="#f9971d" d="M 25.21875 152.191406 C 27.515625 150.933594 29.828125 149.726562 32.15625 148.578125 C 38.503906 145.359375 43.058594 137.503906 44.890625 128.375 C 42.417969 129.054688 39.949219 129.789062 37.480469 130.589844 C 30.746094 132.660156 25.1875 141.585938 25.21875 152.183594 Z M 25.21875 152.191406 " fill-opacity="1" fill-rule="nonzero"/><path fill="#f9971d" d="M 26.308594 134.695312 C 24.386719 133.253906 22.488281 131.761719 20.605469 130.21875 C 15.449219 126.109375 13.285156 115.878906 16.605469 105.425781 C 18.199219 107.320312 19.820312 109.167969 21.476562 110.96875 C 25.96875 115.980469 27.449219 125.230469 26.308594 134.695312 Z M 26.308594 134.695312 " fill-opacity="1" fill-rule="nonzero"/><path fill="#f9971d" d="M 28.636719 121.34375 C 30.933594 120.644531 33.234375 119.996094 35.535156 119.402344 C 41.832031 117.695312 47.5 111.335938 51.015625 103.226562 C 48.660156 103.421875 46.300781 103.667969 43.9375 103.964844 C 37.492188 104.679688 30.75 111.785156 28.636719 121.34375 Z M 28.636719 121.34375 " fill-opacity="1" fill-rule="nonzero"/><path fill="#f9971d" d="M 34.1875 102.816406 C 32.816406 101.136719 31.472656 99.425781 30.15625 97.679688 C 26.523438 92.972656 26.824219 83.441406 32.003906 74.625 C 33.003906 76.625 34.039062 78.589844 35.113281 80.519531 C 37.992188 85.851562 37.273438 94.53125 34.1875 102.804688 Z M 34.1875 102.816406 " fill-opacity="1" fill-rule="nonzero"/><path fill="#f9971d" d="M 39.175781 91.234375 C 41.355469 91.035156 43.527344 90.878906 45.695312 90.765625 C 51.636719 90.390625 58.085938 85.585938 63.054688 78.679688 C 60.90625 78.464844 58.746094 78.292969 56.574219 78.160156 C 50.671875 77.722656 43.132812 83 39.171875 91.234375 Z M 39.175781 91.234375 " fill-opacity="1" fill-rule="nonzero"/><g clip-path="url(#d421782f75)"><path fill="#f9971d" d="M 49.109375 73.785156 C 51.5625 71.675781 54.085938 69.644531 56.679688 67.683594 C 63.683594 62.332031 69.863281 54.335938 72.722656 46.601562 C 69.640625 48.273438 66.628906 50.027344 63.683594 51.867188 C 55.53125 56.875 49.550781 66.175781 49.128906 73.789062 Z M 49.109375 73.785156 " fill-opacity="1" fill-rule="nonzero"/></g><g clip-path="url(#9aa1e5bcec)"><path fill="#ffffff" d="M 187.503906 170.566406 L 223.875 156.59375 L 187.503906 142.433594 L 151.128906 156.589844 Z M 229.6875 217.480469 L 229.6875 200.820312 L 114.777344 156.671875 L 187.503906 128.359375 L 260.230469 156.671875 L 203.292969 178.546875 L 225.492188 187.078125 L 304.378906 156.769531 L 187.503906 111.273438 L 70.628906 156.769531 L 207.488281 209.351562 L 187.503906 217.027344 L 116.273438 189.664062 L 116.273438 236.339844 L 187.503906 263.707031 L 258.734375 236.339844 L 258.734375 189.664062 L 240.363281 196.71875 L 240.363281 215.59375 L 236.015625 213.703125 Z M 229.6875 217.480469 " fill-opacity="1" fill-rule="evenodd"/></g><g clip-path="url(#e477fdad20)"><path fill="#f9971d" d="M 203.667969 106.8125 L 201.25 94.863281 L 195.625 94.863281 L 203.667969 72.316406 C 196.699219 66.597656 190.753906 59.800781 190.753906 50.167969 L 188.328125 50.167969 L 188.328125 76.679688 C 188.578125 76.804688 188.773438 76.976562 188.917969 77.195312 C 189.058594 77.414062 189.132812 77.652344 189.132812 77.902344 C 189.132812 78.089844 189.089844 78.269531 189.007812 78.445312 C 188.925781 78.617188 188.808594 78.769531 188.660156 78.902344 C 188.507812 79.035156 188.332031 79.140625 188.136719 79.210938 C 187.9375 79.28125 187.730469 79.320312 187.519531 79.320312 C 187.304688 79.320312 187.097656 79.28125 186.898438 79.210938 C 186.703125 79.140625 186.527344 79.035156 186.375 78.902344 C 186.226562 78.769531 186.109375 78.617188 186.027344 78.445312 C 185.945312 78.269531 185.902344 78.089844 185.902344 77.902344 C 185.902344 77.652344 185.976562 77.414062 186.117188 77.195312 C 186.261719 76.976562 186.457031 76.804688 186.707031 76.679688 L 186.707031 50.167969 L 184.285156 50.167969 C 184.285156 60.308594 178.277344 66.992188 171.367188 72.769531 L 179.410156 95.371094 L 173.757812 95.371094 L 171.335938 106.8125 Z M 203.667969 106.8125 " fill-opacity="1" fill-rule="nonzero"/></g></svg>